<svg xmlns="http://www.w3.org/2000/svg" viewBox="0 0 1200 800" role="img" aria-label="Industrial refinery">
  <defs>
    <linearGradient id="g1" x1="0" x2="1">
      <stop offset="0%" stop-color="#071424"/>
      <stop offset="100%" stop-color="#123c6c"/>
    </linearGradient>
  </defs>
  <rect width="1200" height="800" fill="url(#g1)"/>
  <rect y="600" width="1200" height="200" fill="#050b14"/>
  <g fill="#d6dce5" opacity=".9">
    <rect x="100" y="350" width="120" height="220" rx="24"/>
    <rect x="250" y="300" width="160" height="270" rx="26"/>
    <rect x="445" y="260" width="110" height="310" rx="22"/>
    <rect x="580" y="330" width="150" height="240" rx="24"/>
    <rect x="760" y="290" width="100" height="280" rx="20"/>
    <rect x="890" y="240" width="140" height="330" rx="24"/>
  </g>
  <g fill="#ff7a00">
    <circle cx="210" cy="410" r="10"/>
    <circle cx="330" cy="350" r="10"/>
    <circle cx="500" cy="320" r="10"/>
    <circle cx="660" cy="390" r="10"/>
    <circle cx="810" cy="340" r="10"/>
    <circle cx="960" cy="300" r="10"/>
  </g>
  <path d="M0 610 C220 560 370 650 610 610 C840 570 980 560 1200 620" stroke="#ffb35c" stroke-width="8" fill="none" opacity=".75"/>
</svg>
